<?xml version="1.0" encoding="UTF-8" standalone="no"?><!DOCTYPE svg PUBLIC "-//W3C//DTD SVG 1.1//EN" "http://www.w3.org/Graphics/SVG/1.1/DTD/svg11.dtd"><svg width="100%" height="100%" viewBox="0 0 2495 2038" version="1.1" xmlns="http://www.w3.org/2000/svg" xmlns:xlink="http://www.w3.org/1999/xlink" xml:space="preserve" xmlns:serif="http://www.serif.com/" style="fill-rule:evenodd;clip-rule:evenodd;stroke-linejoin:round;stroke-miterlimit:2;"><g><g><path d="M0,1956.359l0,-1956.359l582.464,-0l0,1191.948l-582.464,764.411Z" style="fill:#fff;"/><path d="M1551.831,1094.53l942.831,942.831l-646.789,0l-575.75,-575.75l279.708,-367.081Z" style="fill:#fff;"/><g><path d="M1677.269,0l-1552.424,2037.361l-124.845,0l1552.424,-2037.361l124.845,-0Z" style="fill:#fe797b;"/><path d="M1802.114,0l-1552.424,2037.361l-124.845,0l1552.424,-2037.361l124.845,-0Z" style="fill:#ffb750;"/><path d="M1926.96,0l-1552.424,2037.361l-124.845,0l1552.424,-2037.361l124.845,-0Z" style="fill:#ffea56;"/><path d="M2051.805,0l-1552.424,2037.361l-124.845,0l1552.424,-2037.361l124.845,-0Z" style="fill:#8fe968;"/><path d="M2176.651,0l-1552.424,2037.361l-124.845,0l1552.424,-2037.361l124.845,-0Z" style="fill:#36cedc;"/><path d="M2301.496,0l-1552.424,2037.361l-124.845,0l1552.424,-2037.361l124.845,-0Z" style="fill:#a587ca;"/></g></g></g></svg>